<mxfile host="65bd71144e">
    <diagram name="第 1 页" id="EOuV5ERvqpZUSFJWVVJ6">
        <mxGraphModel dx="1126" dy="688" grid="1" gridSize="10" guides="1" tooltips="1" connect="1" arrows="1" fold="1" page="1" pageScale="1" pageWidth="3300" pageHeight="4681" math="0" shadow="0">
            <root>
                <mxCell id="0"/>
                <mxCell id="1" parent="0"/>
                <mxCell id="JI0BGSiuXUO0SO42sEZ8-1" value=":老師" style="shape=umlActor;verticalLabelPosition=bottom;verticalAlign=top;html=1;outlineConnect=0;" parent="1" vertex="1">
                    <mxGeometry x="60" y="250" width="30" height="60" as="geometry"/>
                </mxCell>
                <mxCell id="52" value="UI" style="rounded=0;whiteSpace=wrap;html=1;" parent="1" vertex="1">
                    <mxGeometry x="230" y="250" width="90" height="40" as="geometry"/>
                </mxCell>
                <mxCell id="54" value="&lt;u&gt;:上傳資料&lt;/u&gt;" style="ellipse;shape=umlControl;whiteSpace=wrap;html=1;" parent="1" vertex="1">
                    <mxGeometry x="570" y="440" width="70" height="80" as="geometry"/>
                </mxCell>
                <mxCell id="58" value="&lt;u&gt;:老師資料庫&lt;/u&gt;" style="ellipse;shape=umlEntity;whiteSpace=wrap;html=1;" parent="1" vertex="1">
                    <mxGeometry x="930" y="90" width="80" height="80" as="geometry"/>
                </mxCell>
                <mxCell id="86" value="&lt;u&gt;:顯示&lt;/u&gt;" style="ellipse;shape=umlControl;whiteSpace=wrap;html=1;" parent="1" vertex="1">
                    <mxGeometry x="600" y="190" width="70" height="80" as="geometry"/>
                </mxCell>
                <mxCell id="89" value="&lt;u&gt;:備課資料庫&lt;/u&gt;" style="ellipse;shape=umlEntity;whiteSpace=wrap;html=1;" parent="1" vertex="1">
                    <mxGeometry x="410" y="40" width="80" height="80" as="geometry"/>
                </mxCell>
                <mxCell id="92" value="" style="endArrow=none;startArrow=none;endFill=0;startFill=0;endSize=8;html=1;verticalAlign=bottom;labelBackgroundColor=none;strokeWidth=3;rounded=0;exitX=1;exitY=0.3333333333333333;exitDx=0;exitDy=0;exitPerimeter=0;entryX=0;entryY=0.5;entryDx=0;entryDy=0;" parent="1" source="JI0BGSiuXUO0SO42sEZ8-1" target="52" edge="1">
                    <mxGeometry width="160" relative="1" as="geometry">
                        <mxPoint x="130" y="540" as="sourcePoint"/>
                        <mxPoint x="330" y="400" as="targetPoint"/>
                    </mxGeometry>
                </mxCell>
                <mxCell id="93" value="" style="html=1;verticalAlign=bottom;labelBackgroundColor=none;endArrow=block;endFill=1;rounded=0;" parent="1" edge="1">
                    <mxGeometry width="160" relative="1" as="geometry">
                        <mxPoint x="100" y="250" as="sourcePoint"/>
                        <mxPoint x="220" y="250" as="targetPoint"/>
                    </mxGeometry>
                </mxCell>
                <mxCell id="94" value="" style="endArrow=block;startArrow=none;endFill=0;startFill=0;endSize=8;html=1;verticalAlign=bottom;dashed=1;labelBackgroundColor=none;rounded=0;" parent="1" edge="1">
                    <mxGeometry width="160" relative="1" as="geometry">
                        <mxPoint x="500" y="120" as="sourcePoint"/>
                        <mxPoint x="600" y="190" as="targetPoint"/>
                    </mxGeometry>
                </mxCell>
                <mxCell id="95" value="" style="endArrow=none;startArrow=none;endFill=0;startFill=0;endSize=8;html=1;verticalAlign=bottom;labelBackgroundColor=none;strokeWidth=3;rounded=0;exitX=1;exitY=0.5;exitDx=0;exitDy=0;" parent="1" source="52" target="86" edge="1">
                    <mxGeometry width="160" relative="1" as="geometry">
                        <mxPoint x="440" y="260" as="sourcePoint"/>
                        <mxPoint x="580" y="260" as="targetPoint"/>
                    </mxGeometry>
                </mxCell>
                <mxCell id="96" value="" style="endArrow=none;startArrow=none;endFill=0;startFill=0;endSize=8;html=1;verticalAlign=bottom;labelBackgroundColor=none;strokeWidth=3;rounded=0;exitX=0.995;exitY=0.588;exitDx=0;exitDy=0;exitPerimeter=0;entryX=0;entryY=0.5;entryDx=0;entryDy=0;" parent="1" source="86" target="58" edge="1">
                    <mxGeometry width="160" relative="1" as="geometry">
                        <mxPoint x="570" y="279.5" as="sourcePoint"/>
                        <mxPoint x="710" y="279.5" as="targetPoint"/>
                    </mxGeometry>
                </mxCell>
                <mxCell id="97" value="" style="endArrow=none;startArrow=none;endFill=0;startFill=0;endSize=8;html=1;verticalAlign=bottom;labelBackgroundColor=none;strokeWidth=3;rounded=0;entryX=1.021;entryY=0.613;entryDx=0;entryDy=0;entryPerimeter=0;exitX=0;exitY=0.5;exitDx=0;exitDy=0;" parent="1" source="58" target="89" edge="1">
                    <mxGeometry width="160" relative="1" as="geometry">
                        <mxPoint x="800" y="140" as="sourcePoint"/>
                        <mxPoint x="830" y="250" as="targetPoint"/>
                    </mxGeometry>
                </mxCell>
                <mxCell id="98" value="" style="endArrow=none;startArrow=none;endFill=0;startFill=0;endSize=8;html=1;verticalAlign=bottom;labelBackgroundColor=none;strokeWidth=3;rounded=0;entryX=0.796;entryY=1.046;entryDx=0;entryDy=0;exitX=0.11;exitY=0.321;exitDx=0;exitDy=0;exitPerimeter=0;entryPerimeter=0;" parent="1" source="86" target="89" edge="1">
                    <mxGeometry width="160" relative="1" as="geometry">
                        <mxPoint x="570" y="230" as="sourcePoint"/>
                        <mxPoint x="820" y="300" as="targetPoint"/>
                    </mxGeometry>
                </mxCell>
                <mxCell id="99" value="" style="endArrow=none;startArrow=none;endFill=0;startFill=0;endSize=8;html=1;verticalAlign=bottom;labelBackgroundColor=none;strokeWidth=3;rounded=0;exitX=1;exitY=0.5;exitDx=0;exitDy=0;entryX=-0.014;entryY=0.463;entryDx=0;entryDy=0;entryPerimeter=0;" parent="1" source="52" target="54" edge="1">
                    <mxGeometry width="160" relative="1" as="geometry">
                        <mxPoint x="310" y="310" as="sourcePoint"/>
                        <mxPoint x="450" y="310" as="targetPoint"/>
                    </mxGeometry>
                </mxCell>
                <mxCell id="100" value="" style="endArrow=none;startArrow=none;endFill=0;startFill=0;endSize=8;html=1;verticalAlign=bottom;labelBackgroundColor=none;strokeWidth=3;rounded=0;exitX=1.005;exitY=0.579;exitDx=0;exitDy=0;exitPerimeter=0;entryX=-0.021;entryY=0.529;entryDx=0;entryDy=0;entryPerimeter=0;" parent="1" source="54" target="108" edge="1">
                    <mxGeometry width="160" relative="1" as="geometry">
                        <mxPoint x="640" y="404.5" as="sourcePoint"/>
                        <mxPoint x="780" y="404.5" as="targetPoint"/>
                    </mxGeometry>
                </mxCell>
                <mxCell id="101" value="" style="endArrow=none;startArrow=none;endFill=0;startFill=0;endSize=8;html=1;verticalAlign=bottom;labelBackgroundColor=none;strokeWidth=3;rounded=0;entryX=-0.033;entryY=0.538;entryDx=0;entryDy=0;entryPerimeter=0;" parent="1" target="108" edge="1">
                    <mxGeometry width="160" relative="1" as="geometry">
                        <mxPoint x="670" y="240" as="sourcePoint"/>
                        <mxPoint x="610" y="279.5" as="targetPoint"/>
                    </mxGeometry>
                </mxCell>
                <mxCell id="102" value="" style="endArrow=none;startArrow=none;endFill=0;startFill=0;endSize=8;html=1;verticalAlign=bottom;labelBackgroundColor=none;strokeWidth=3;rounded=0;" parent="1" target="89" edge="1">
                    <mxGeometry width="160" relative="1" as="geometry">
                        <mxPoint x="320" y="270" as="sourcePoint"/>
                        <mxPoint x="270" y="330" as="targetPoint"/>
                    </mxGeometry>
                </mxCell>
                <mxCell id="103" value="" style="endArrow=none;startArrow=none;endFill=0;startFill=0;endSize=8;html=1;verticalAlign=bottom;labelBackgroundColor=none;strokeWidth=3;rounded=0;exitX=1;exitY=0.5;exitDx=0;exitDy=0;entryX=-0.027;entryY=0.557;entryDx=0;entryDy=0;entryPerimeter=0;" parent="1" source="52" target="108" edge="1">
                    <mxGeometry width="160" relative="1" as="geometry">
                        <mxPoint x="180" y="360" as="sourcePoint"/>
                        <mxPoint x="320" y="360" as="targetPoint"/>
                    </mxGeometry>
                </mxCell>
                <mxCell id="108" value="ref" style="shape=umlFrame;whiteSpace=wrap;html=1;pointerEvents=0;" parent="1" vertex="1">
                    <mxGeometry x="900" y="360" width="110" height="70" as="geometry"/>
                </mxCell>
                <mxCell id="109" value="&lt;span style=&quot;color: rgb(0, 0, 0); font-family: Helvetica; font-size: 12px; font-style: normal; font-variant-ligatures: normal; font-variant-caps: normal; font-weight: 400; letter-spacing: normal; orphans: 2; text-align: center; text-indent: 0px; text-transform: none; widows: 2; word-spacing: 0px; -webkit-text-stroke-width: 0px; background-color: rgb(251, 251, 251); text-decoration-thickness: initial; text-decoration-style: initial; text-decoration-color: initial; float: none; display: inline !important;&quot;&gt;建議資料&lt;/span&gt;" style="text;whiteSpace=wrap;html=1;" parent="1" vertex="1">
                    <mxGeometry x="930" y="400" width="80" height="40" as="geometry"/>
                </mxCell>
                <mxCell id="111" value="" style="html=1;verticalAlign=bottom;labelBackgroundColor=none;endArrow=block;endFill=1;rounded=0;" parent="1" edge="1">
                    <mxGeometry width="160" relative="1" as="geometry">
                        <mxPoint x="350" y="250" as="sourcePoint"/>
                        <mxPoint x="570" y="220" as="targetPoint"/>
                    </mxGeometry>
                </mxCell>
                <mxCell id="112" value="" style="html=1;verticalAlign=bottom;labelBackgroundColor=none;endArrow=block;endFill=1;rounded=0;" parent="1" edge="1">
                    <mxGeometry width="160" relative="1" as="geometry">
                        <mxPoint x="680" y="210" as="sourcePoint"/>
                        <mxPoint x="870" y="140" as="targetPoint"/>
                    </mxGeometry>
                </mxCell>
                <mxCell id="113" value="" style="html=1;verticalAlign=bottom;labelBackgroundColor=none;endArrow=block;endFill=1;rounded=0;" parent="1" edge="1">
                    <mxGeometry width="160" relative="1" as="geometry">
                        <mxPoint x="890" y="110" as="sourcePoint"/>
                        <mxPoint x="510" y="70" as="targetPoint"/>
                    </mxGeometry>
                </mxCell>
                <mxCell id="114" value="" style="html=1;verticalAlign=bottom;labelBackgroundColor=none;endArrow=block;endFill=1;rounded=0;" parent="1" edge="1">
                    <mxGeometry width="160" relative="1" as="geometry">
                        <mxPoint x="320" y="230" as="sourcePoint"/>
                        <mxPoint x="400" y="120" as="targetPoint"/>
                    </mxGeometry>
                </mxCell>
                <mxCell id="115" value="" style="html=1;verticalAlign=bottom;labelBackgroundColor=none;endArrow=block;endFill=1;rounded=0;" parent="1" edge="1">
                    <mxGeometry width="160" relative="1" as="geometry">
                        <mxPoint x="380" y="290" as="sourcePoint"/>
                        <mxPoint x="830" y="400" as="targetPoint"/>
                    </mxGeometry>
                </mxCell>
                <mxCell id="116" value="" style="html=1;verticalAlign=bottom;labelBackgroundColor=none;endArrow=block;endFill=1;rounded=0;" parent="1" edge="1">
                    <mxGeometry width="160" relative="1" as="geometry">
                        <mxPoint x="330" y="300" as="sourcePoint"/>
                        <mxPoint x="560" y="490" as="targetPoint"/>
                    </mxGeometry>
                </mxCell>
                <mxCell id="120" value="" style="html=1;verticalAlign=bottom;labelBackgroundColor=none;endArrow=block;endFill=1;rounded=0;" parent="1" edge="1">
                    <mxGeometry width="160" relative="1" as="geometry">
                        <mxPoint x="660" y="500" as="sourcePoint"/>
                        <mxPoint x="880" y="420" as="targetPoint"/>
                    </mxGeometry>
                </mxCell>
                <mxCell id="121" value="" style="endArrow=block;startArrow=none;endFill=0;startFill=0;endSize=8;html=1;verticalAlign=bottom;dashed=1;labelBackgroundColor=none;rounded=0;" parent="1" edge="1">
                    <mxGeometry width="160" relative="1" as="geometry">
                        <mxPoint x="590" y="250" as="sourcePoint"/>
                        <mxPoint x="400" y="270" as="targetPoint"/>
                    </mxGeometry>
                </mxCell>
                <mxCell id="122" value="" style="endArrow=block;startArrow=none;endFill=0;startFill=0;endSize=8;html=1;verticalAlign=bottom;dashed=1;labelBackgroundColor=none;rounded=0;" parent="1" edge="1">
                    <mxGeometry width="160" relative="1" as="geometry">
                        <mxPoint x="880" y="370" as="sourcePoint"/>
                        <mxPoint x="700" y="240" as="targetPoint"/>
                    </mxGeometry>
                </mxCell>
                <mxCell id="130" value="&lt;span style=&quot;color: rgb(0, 0, 0); font-family: Helvetica; font-size: 11px; font-style: normal; font-variant-ligatures: normal; font-variant-caps: normal; font-weight: 400; letter-spacing: normal; orphans: 2; text-align: center; text-indent: 0px; text-transform: none; widows: 2; word-spacing: 0px; -webkit-text-stroke-width: 0px; background-color: rgb(255, 255, 255); text-decoration-thickness: initial; text-decoration-style: initial; text-decoration-color: initial; float: none; display: inline !important;&quot;&gt;1:查看備課資料()&lt;br&gt;&lt;span style=&quot;&quot;&gt;7:點擊建立備課資料()&lt;br&gt;&lt;/span&gt;&lt;span style=&quot;&quot;&gt;15:提出修改提示(提示)&lt;br&gt;&lt;/span&gt;&lt;span style=&quot;&quot;&gt;19:提出儲存要求()&lt;/span&gt;&lt;br&gt;&lt;/span&gt;" style="text;whiteSpace=wrap;html=1;" parent="1" vertex="1">
                    <mxGeometry x="110" y="180" width="120" height="40" as="geometry"/>
                </mxCell>
                <mxCell id="131" value="&lt;span style=&quot;color: rgb(0, 0, 0); font-family: Helvetica; font-size: 11px; font-style: normal; font-variant-ligatures: normal; font-variant-caps: normal; font-weight: 400; letter-spacing: normal; orphans: 2; text-align: center; text-indent: 0px; text-transform: none; widows: 2; word-spacing: 0px; -webkit-text-stroke-width: 0px; background-color: rgb(255, 255, 255); text-decoration-thickness: initial; text-decoration-style: initial; text-decoration-color: initial; float: none; display: inline !important;&quot;&gt;2:傳送顯示資料需求()&lt;/span&gt;" style="text;whiteSpace=wrap;html=1;rotation=0;" parent="1" vertex="1">
                    <mxGeometry x="390" y="200" width="140" height="40" as="geometry"/>
                </mxCell>
                <mxCell id="132" value="&lt;span style=&quot;color: rgb(0, 0, 0); font-family: Helvetica; font-size: 11px; font-style: normal; font-variant-ligatures: normal; font-variant-caps: normal; font-weight: 400; letter-spacing: normal; orphans: 2; text-align: center; text-indent: 0px; text-transform: none; widows: 2; word-spacing: 0px; -webkit-text-stroke-width: 0px; background-color: rgb(255, 255, 255); text-decoration-thickness: initial; text-decoration-style: initial; text-decoration-color: initial; float: none; display: inline !important;&quot;&gt;3:搜尋老師個人擁有資料()&lt;/span&gt;" style="text;whiteSpace=wrap;html=1;rotation=-15;" parent="1" vertex="1">
                    <mxGeometry x="680" y="140" width="160" height="40" as="geometry"/>
                </mxCell>
                <mxCell id="133" value="&lt;span style=&quot;color: rgb(0, 0, 0); font-family: Helvetica; font-size: 11px; font-style: normal; font-variant-ligatures: normal; font-variant-caps: normal; font-weight: 400; letter-spacing: normal; orphans: 2; text-align: center; text-indent: 0px; text-transform: none; widows: 2; word-spacing: 0px; -webkit-text-stroke-width: 0px; background-color: rgb(255, 255, 255); text-decoration-thickness: initial; text-decoration-style: initial; text-decoration-color: initial; float: none; display: inline !important;&quot;&gt;4:讀取目前所有備課資料()&lt;/span&gt;" style="text;whiteSpace=wrap;html=1;" parent="1" vertex="1">
                    <mxGeometry x="600" y="50" width="160" height="40" as="geometry"/>
                </mxCell>
                <mxCell id="134" value="&lt;span style=&quot;color: rgb(0, 0, 0); font-family: Helvetica; font-size: 11px; font-style: normal; font-variant-ligatures: normal; font-variant-caps: normal; font-weight: 400; letter-spacing: normal; orphans: 2; text-align: center; text-indent: 0px; text-transform: none; widows: 2; word-spacing: 0px; -webkit-text-stroke-width: 0px; background-color: rgb(255, 255, 255); text-decoration-thickness: initial; text-decoration-style: initial; text-decoration-color: initial; float: none; display: inline !important;&quot;&gt;5:載入目前所有備課資料()&lt;br&gt;&lt;span style=&quot;&quot;&gt;13:傳送推薦前的資料&lt;br&gt;&lt;/span&gt;&lt;span style=&quot;&quot;&gt;21:顯示備課檔案()&lt;/span&gt;&lt;br&gt;&lt;/span&gt;" style="text;whiteSpace=wrap;html=1;rotation=30;" parent="1" vertex="1">
                    <mxGeometry x="510" y="130" width="160" height="40" as="geometry"/>
                </mxCell>
                <mxCell id="135" value="&lt;span style=&quot;color: rgb(0, 0, 0); font-family: Helvetica; font-size: 11px; font-style: normal; font-variant-ligatures: normal; font-variant-caps: normal; font-weight: 400; letter-spacing: normal; orphans: 2; text-align: center; text-indent: 0px; text-transform: none; widows: 2; word-spacing: 0px; -webkit-text-stroke-width: 0px; background-color: rgb(255, 255, 255); text-decoration-thickness: initial; text-decoration-style: initial; text-decoration-color: initial; float: none; display: inline !important;&quot;&gt;6:顯示目前所有備課資料()&lt;br&gt;&lt;span style=&quot;&quot;&gt;11:顯示推薦備課資料()&lt;br&gt;&lt;/span&gt;&lt;span style=&quot;&quot;&gt;14:顯示推薦備課資料()&lt;br&gt;&lt;/span&gt;&lt;span style=&quot;&quot;&gt;18:顯示推薦備課資料()&lt;br&gt;&lt;/span&gt;&lt;span style=&quot;&quot;&gt;22:顯示備課檔案()&lt;/span&gt;&lt;br&gt;&lt;/span&gt;" style="text;whiteSpace=wrap;html=1;" parent="1" vertex="1">
                    <mxGeometry x="450" y="260" width="160" height="40" as="geometry"/>
                </mxCell>
                <mxCell id="136" value="&lt;span style=&quot;color: rgb(0, 0, 0); font-family: Helvetica; font-size: 11px; font-style: normal; font-variant-ligatures: normal; font-variant-caps: normal; font-weight: 400; letter-spacing: normal; orphans: 2; text-align: center; text-indent: 0px; text-transform: none; widows: 2; word-spacing: 0px; -webkit-text-stroke-width: 0px; background-color: rgb(255, 255, 255); text-decoration-thickness: initial; text-decoration-style: initial; text-decoration-color: initial; float: none; display: inline !important;&quot;&gt;8:傳送備課資料()&lt;/span&gt;" style="text;whiteSpace=wrap;html=1;rotation=45;" parent="1" vertex="1">
                    <mxGeometry x="360" y="400" width="120" height="40" as="geometry"/>
                </mxCell>
                <mxCell id="137" value="&lt;span style=&quot;color: rgb(0, 0, 0); font-family: Helvetica; font-size: 11px; font-style: normal; font-variant-ligatures: normal; font-variant-caps: normal; font-weight: 400; letter-spacing: normal; orphans: 2; text-align: center; text-indent: 0px; text-transform: none; widows: 2; word-spacing: 0px; -webkit-text-stroke-width: 0px; background-color: rgb(255, 255, 255); text-decoration-thickness: initial; text-decoration-style: initial; text-decoration-color: initial; float: none; display: inline !important;&quot;&gt;9:輸入備課資料()&lt;/span&gt;" style="text;whiteSpace=wrap;html=1;rotation=-30;" parent="1" vertex="1">
                    <mxGeometry x="720" y="470" width="120" height="40" as="geometry"/>
                </mxCell>
                <mxCell id="138" value="&lt;span style=&quot;color: rgb(0, 0, 0); font-family: Helvetica; font-size: 11px; font-style: normal; font-variant-ligatures: normal; font-variant-caps: normal; font-weight: 400; letter-spacing: normal; orphans: 2; text-align: center; text-indent: 0px; text-transform: none; widows: 2; word-spacing: 0px; -webkit-text-stroke-width: 0px; background-color: rgb(255, 255, 255); text-decoration-thickness: initial; text-decoration-style: initial; text-decoration-color: initial; float: none; display: inline !important;&quot;&gt;10:回傳推薦備課資料()&lt;br&gt;&lt;span style=&quot;&quot;&gt;17:回傳推薦備課資料()&lt;/span&gt;&lt;br&gt;&lt;/span&gt;" style="text;whiteSpace=wrap;html=1;rotation=30;" parent="1" vertex="1">
                    <mxGeometry x="760" y="280" width="140" height="40" as="geometry"/>
                </mxCell>
                <mxCell id="139" value="&lt;span style=&quot;color: rgb(0, 0, 0); font-family: Helvetica; font-size: 11px; font-style: normal; font-variant-ligatures: normal; font-variant-caps: normal; font-weight: 400; letter-spacing: normal; orphans: 2; text-align: center; text-indent: 0px; text-transform: none; widows: 2; word-spacing: 0px; -webkit-text-stroke-width: 0px; background-color: rgb(255, 255, 255); text-decoration-thickness: initial; text-decoration-style: initial; text-decoration-color: initial; float: none; display: inline !important;&quot;&gt;12:請求推薦前資料&lt;br&gt;&lt;span style=&quot;&quot;&gt;20:讀取儲存資料()&lt;/span&gt;&lt;br&gt;&lt;/span&gt;" style="text;whiteSpace=wrap;html=1;rotation=-60;" parent="1" vertex="1">
                    <mxGeometry x="290" y="130" width="120" height="40" as="geometry"/>
                </mxCell>
                <mxCell id="141" value="&lt;span style=&quot;color: rgb(0, 0, 0); font-family: Helvetica; font-size: 11px; font-style: normal; font-variant-ligatures: normal; font-variant-caps: normal; font-weight: 400; letter-spacing: normal; orphans: 2; text-align: center; text-indent: 0px; text-transform: none; widows: 2; word-spacing: 0px; -webkit-text-stroke-width: 0px; background-color: rgb(255, 255, 255); text-decoration-thickness: initial; text-decoration-style: initial; text-decoration-color: initial; float: none; display: inline !important;&quot;&gt;16:傳送修改條件後備課資料()&lt;/span&gt;" style="text;whiteSpace=wrap;html=1;rotation=15;" parent="1" vertex="1">
                    <mxGeometry x="520" y="360" width="180" height="40" as="geometry"/>
                </mxCell>
            </root>
        </mxGraphModel>
    </diagram>
</mxfile>